# xmcd CD database file
#
# Track frame offsets:
#	150
#	21844
#	38877
#	58204
#	76231
#	90928
#	105653
#	121089
#	134742
#	151638
#	170274
#	189092
#	205368
#	223176
#	239559
#	257363
#	275150
#	290120
#	311540
#	327933
#
# Disc length: 4683 seconds
#
# Revision: 2
# Processed by: cddbd v1.5.2PL0 Copyright (c) Steve Scherf et al.
# Submitted via: CDex 1.70beta2
#
DISCID=1d124914
DTITLE=Various Artist - Perfect! R&B 4: Weekend Playlist [Disc 2] - SICP-3351
DYEAR=2011
DGENRE=Jazz
TTITLE0=R. Kelly: Love Letter
TTITLE1=Stevie Hoang: Nobody
TTITLE2=Lee Carr: Breathe
TTITLE3=Lloyd: Lay It Down
TTITLE4=Miguel: Sure Thing
TTITLE5=Mike Posner: Bow Chicka Wow Wow
TTITLE6=Mary J. Blige: I Am
TTITLE7=Alicia Keys: Juiciest [Mixtape Version]
TTITLE8=Jennifer Lopez: Loving You
TTITLE9=Whitney Houston: Call You Tonight
TTITLE10=Marsha Ambrosius: Butterflies [Remix]
TTITLE11=Jazmine Sullivan: Holding You Down (Goin' In Circles)
TTITLE12=Elle Varner: Only Wanna Give It to You (feat. J. Cole)
TTITLE13=Fantasia: Who's Been Lovin' You
TTITLE14=Charlie Wilson:  I Wanna Be Your Man (feat. Fantasia)
TTITLE15=Paula DeAnda: Walk Away <Remember Me> (feat. The DEY)
TTITLE16=Jessica Mauboy: What Happened to Us (feat. Stan Walker)
TTITLE17=Atozzio: Without You (feat. Jackie Boyz)
TTITLE18=Ruben Studdard: Rather Just Not Know
TTITLE19=Joe: Don't Wanna Be a Player (feat. Mic Vandaiz) [Big Baby Remix]
EXTD=YEAR: 2011
EXTT0=
EXTT1=
EXTT2=
EXTT3=
EXTT4=
EXTT5=
EXTT6=
EXTT7=
EXTT8=
EXTT9=
EXTT10=
EXTT11=
EXTT12=
EXTT13=
EXTT14=
EXTT15=
EXTT16=
EXTT17=
EXTT18=
EXTT19=
PLAYORDER=
